[Header]
FileType HTR
DataType HTRS
FileVersion 1
NumSegments 22
NumFrames 4
DataFrameRate 24
EulerRotationOrder ZYX
CalibrationUnits mm
RotationUnits Degrees
GlobalAxisofGravity Y
BoneLengthAxis Y
ScaleFactor 1.0
[SegmentNames&Hierarchy]
reference	GLOBAL
Hips	reference
Spine	Hips
Spine1	Spine
Neck	Spine1
Head	Neck
LeftShoulder	Spine1
LeftArm	LeftShoulder
LeftForeArm	LeftArm
LeftHand	LeftForeArm
RightShoulder	Spine1
RightArm	RightShoulder
RightForeArm	RightArm
RightHand	RightForeArm
LeftUpLeg	Hips
LeftLeg	LeftUpLeg
LeftFoot	LeftLeg
LeftToeBase	LeftFoot
RightUpLeg	Hips
RightLeg	RightUpLeg
RightFoot	RightLeg
RightToeBase	RightFoot
[BasePosition]
reference	0	0	0	0	0	0	1
Hips	0	0	0	0	0	0	1
Spine	0	0	0	0	-0	90	1
Spine1	0	0	0	0	0	0	1
Neck	0	0	0	-7.352327771	-7.352327771	90	1
Head	0	0	0	0	-0	90	1
LeftShoulder	0	0	0	0	0	0	1
LeftArm	0	0	0	0	0	0	1
LeftForeArm	0	0	0	0	0	0	1
LeftHand	0	0	0	0	0	0	1
RightShoulder	0	0	0	0	-0	180	1
RightArm	0	0	0	0	-0	180	1
RightForeArm	0	0	0	0	-0	180	1
RightHand	0	0	0	0	-0	180	1
LeftUpLeg	0	0	0	0	-0	-90	1
LeftLeg	0	0	0	0	-0	-90	1
LeftFoot	0	0	0	66.57146043	-66.57146043	-90	1
LeftToeBase	0	0	0	0	-90	0	1
RightUpLeg	0	0	0	0	-0	-90	1
RightLeg	0	0	0	0	-0	-90	1
RightFoot	0	0	0	66.57146043	-66.57146043	-90	1
RightToeBase	0	0	0	0	-90	0	1
[reference]
67	0	0	0	0	-0	0	1.0
68	0	0	0	0	-0	0	1.0
69	0	0	0	0	-0	0	1.0
70	0	0	0	0	-0	0	1.0
[Hips]
67	13.04875946	8.454214096	2.708399773	-2.518676758	-122.8213043	12.81497192	1.0
68	13.21681881	8.51441288	2.687358618	-3.293871641	-120.9128342	13.62423515	1.0
69	13.34506512	8.557308197	2.655834198	-2.437638521	-119.7075958	13.57028866	1.0
70	13.54273796	8.564778328	2.648639202	-5.450512886	-119.2960205	15.5515728	1.0
[Spine]
67	0	0.7457100153	0	-5.727023602	5.098910332	-88.24823761	1.0
68	0	0.7457100153	0	-3.40604043	8.615507126	-86.57437134	1.0
69	0	0.7457100153	0	-8.148425102	11.41675472	-87.05441284	1.0
70	0	0.7457100153	0	-7.477211952	14.0155592	-86.25896454	1.0
[Spine1]
67	0	2.140589952	0	5.106985569	1.629401326	0.9942885041	1.0
68	0	2.140589952	0	5.720332146	0.1987823844	1.072906017	1.0
69	0	2.140589952	0	10.15876007	-0.4252610505	2.426418066	1.0
70	0	2.140589952	0	11.27584743	-0.436937511	3.322726727	1.0
[Neck]
67	0	2.32246995	0	-31.05015182	24.10731697	-96.30709839	1.0
68	0	2.32246995	0	-30.09952164	21.07401657	-94.3864212	1.0
69	0	2.32246995	0	-30.95300865	19.50176811	-93.8136673	1.0
70	0	2.32246995	0	-31.6296196	17.75865555	-93.19923401	1.0
[Head]
67	0	1.409579992	0.1818799973	-4.370016098	0.1620225161	-93.25328064	1.0
68	0	1.409579992	0.1818799973	-6.097764015	-0.2181236446	-93.68952179	1.0
69	0	1.409579992	0.1818799973	-2.113636017	1.256104589	-100.9892044	1.0
70	0	1.409579992	0.1818799973	-0.7601035237	1.518918753	-104.2625656	1.0
[LeftShoulder]
67	0.3668199778	1.946700096	-0.02662999928	-6.990514278	-10.81306648	-0.3948824108	1.0
68	0.3668199778	1.946700096	-0.02662999928	-6.658969879	-10.59082985	2.448577404	1.0
69	0.3668199778	1.946700096	-0.02662999928	-5.308755875	-12.52587032	2.934409857	1.0
70	0.3668199778	1.946700096	-0.02662999928	-7.438580513	-13.660923	6.406223297	1.0
[LeftArm]
67	1.140689969	0	0	27.93826485	23.84478951	-62.09774399	1.0
68	1.140689969	0	0	24.81735992	27.70882034	-58.0529213	1.0
69	1.140689969	0	0	-23.51770401	27.26252937	-47.48581314	1.0
70	1.140689969	0	0	-20.87520409	29.32470512	-46.76675415	1.0
[LeftForeArm]
67	2.749800205	0	0	24.35864258	-67.69646454	-32.90146637	1.0
68	2.749800205	0	0	37.27823257	-62.16555023	-50.20034409	1.0
69	2.749800205	0	0	38.72612381	-5.629000187	-78.66221619	1.0
70	2.749800205	0	0	36.92140198	-4.181380272	-77.04270935	1.0
[LeftHand]
67	2.295179844	0	0	2.186578274	-22.42960739	-1.167469025	1.0
68	2.295179844	0	0	6.168151855	-21.57594299	-2.19567728	1.0
69	2.295179844	0	0	34.57401657	-21.30174446	-6.081241131	1.0
70	2.295179844	0	0	34.93561935	-20.68736267	-7.352865219	1.0
[RightShoulder]
67	-0.3601199985	1.946700096	-0.02662999928	-5.786370277	4.597234249	174.0217285	1.0
68	-0.3601199985	1.946700096	-0.02662999928	-9.859109879	2.35947752	172.9366302	1.0
69	-0.3601199985	1.946700096	-0.02662999928	2.131733894	3.309122086	177.0952759	1.0
70	-0.3601199985	1.946700096	-0.02662999928	1.985168815	2.266815662	175.9232178	1.0
[RightArm]
67	-1.140689969	0	0	-6.462869644	10.43325233	-110.3372955	1.0
68	-1.140689969	0	0	-5.749082565	11.51637554	-109.2497711	1.0
69	-1.140689969	0	0	3.797841072	26.84845161	-117.1791611	1.0
70	-1.140689969	0	0	6.215269566	30.97385597	-117.249176	1.0
[RightForeArm]
67	-2.749800205	0	0	71.98130798	27.8197937	268.5101318	1.0
68	-2.749800205	0	0	74.80097198	24.86497116	278.9008484	1.0
69	-2.749800205	0	0	93.49468994	38.71353149	290.3235779	1.0
70	-2.749800205	0	0	97.06110382	39.55859375	293.8461304	1.0
[RightHand]
67	-2.295179844	0	0	38.52251053	32.19566345	158.440918	1.0
68	-2.295179844	0	0	40.60939026	33.63095856	161.8993225	1.0
69	-2.295179844	0	0	35.06861877	26.79667664	159.4336548	1.0
70	-2.295179844	0	0	34.56163788	25.12884331	159.030304	1.0
[LeftUpLeg]
67	0.9094099998	0	0	-10.22596931	9.302614212	92.00445557	1.0
68	0.9094099998	0	0	-6.903263569	5.781298637	95.59273529	1.0
69	0.9094099998	0	0	-7.310145855	1.914323926	95.4029007	1.0
70	0.9094099998	0	0	-8.082262993	6.818074226	96.44808197	1.0
[LeftLeg]
67	0	-4.498080254	0	-4.461602688	-11.43193626	84.69404602	1.0
68	0	-4.498080254	0	-10.17254639	-11.69641495	84.28913879	1.0
69	0	-4.498080254	0	-11.56944942	0.1575243324	85.72193909	1.0
70	0	-4.498080254	0	-10.23124504	-3.190788984	85.22936249	1.0
[LeftFoot]
67	0	-3.729400158	0	-101.2311172	156.0288086	-6.491409302	1.0
68	0	-3.729400158	0	-105.2311554	153.5066528	-7.949707031	1.0
69	0	-3.729400158	0	-44.34176636	191.8994446	14.24882507	1.0
70	0	-3.729400158	0	-44.34176636	191.8994446	14.24882507	1.0
[LeftToeBase]
67	0	-0.5911099911	1.364109993	0	0	0	1.0
68	0	-0.5911099911	1.364109993	0	0	0	1.0
69	0	-0.5911099911	1.364109993	0	0	0	1.0
70	0	-0.5911099911	1.364109993	0	0	0	1.0
[RightUpLeg]
67	-0.9094099998	0	0	-30.12737083	-1.517326832	103.590744	1.0
68	-0.9094099998	0	0	-23.22935295	-4.407906532	102.8970871	1.0
69	-0.9094099998	0	0	-17.45087242	-6.076094627	100.0485992	1.0
70	-0.9094099998	0	0	-12.56727791	-3.886953115	99.57478333	1.0
[RightLeg]
67	0	-4.498080254	0	40.05641937	5.048265934	77.369133	1.0
68	0	-4.498080254	0	40.87534332	5.61198616	78.48042297	1.0
69	0	-4.498080254	0	35.99340439	-0.9625288844	76.05609131	1.0
70	0	-4.498080254	0	28.34611702	-1.89441812	79.04145813	1.0
[RightFoot]
67	0	-3.729400158	0	61.3640213	63.13841248	112.5155563	1.0
68	0	-3.729400158	0	56.52219391	62.38632965	107.6221619	1.0
69	0	-3.729400158	0	69.78795624	60.81117249	121.5540848	1.0
70	0	-3.729400158	0	69.84781647	60.97349167	121.5175705	1.0
[RightToeBase]
67	0	-0.5911099911	1.364109993	0	0	0	1.0
68	0	-0.5911099911	1.364109993	0	0	0	1.0
69	0	-0.5911099911	1.364109993	0	0	0	1.0
70	0	-0.5911099911	1.364109993	0	0	0	1.0
[EndOfFile]
